<svg xmlns="http://www.w3.org/2000/svg" width="15" height="14" viewBox="0 0 15 14">
  <g id="Path_2" data-name="Path 2" fill="rgba(255,0,0,0.56)">
    <path d="M 7.5 13.5 C 3.64018988609314 13.5 0.5 10.58411026000977 0.5 7 C 0.5 3.415889978408813 3.64018988609314 0.5 7.5 0.5 C 11.35980987548828 0.5 14.5 3.415889978408813 14.5 7 C 14.5 10.58411026000977 11.35980987548828 13.5 7.5 13.5 Z" stroke="none"/>
    <path d="M 7.5 1 C 3.915889739990234 1 1 3.691590309143066 1 7 C 1 10.30840969085693 3.915889739990234 13 7.5 13 C 11.08411026000977 13 14 10.30840969085693 14 7 C 14 3.691590309143066 11.08411026000977 1 7.5 1 M 7.5 0 C 11.64213943481445 0 15 3.134010314941406 15 7 C 15 10.86598968505859 11.64213943481445 14 7.5 14 C 3.35785961151123 14 0 10.86598968505859 0 7 C 0 3.134010314941406 3.35785961151123 0 7.5 0 Z" stroke="none" fill="#ffb1b1"/>
  </g>
</svg>
